<svg id="レイヤー_1" data-name="レイヤー 1" xmlns="http://www.w3.org/2000/svg" width="1464.8" height="87.5" viewBox="0 0 1464.8 87.5"><title>lazer_1</title><path d="M247.6,527.6s-7.2,1.4-10.5,4.1c0,0-7.3,5.2-7.5,9.9,0,0-1.7,7,.9,10.2a14.9,14.9,0,0,0,7.8,6,22.8,22.8,0,0,0,9.3-.8s8.5-3,11.8-8.3a25.7,25.7,0,0,0,2.7-11.6s-3.2-6.9-7-8.1C255.1,529,250.8,526.7,247.6,527.6Z" transform="translate(-228.6 -494.4)" fill="none" stroke="#040000" stroke-miterlimit="10"/><polyline points="25.7 13.5 22.2 26.7 19 40.2 15.1 56.9 11.2 71.8 9.7 78.9" fill="none" stroke="#040000" stroke-miterlimit="10"/><path d="M250.8,503.5a4.1,4.1,0,0,1-4.4-3.5,4.4,4.4,0,0,1,2.7-4.9s2.1-1,4.8.9c0,0,2.3,2.3.4,5.9C254.3,501.9,252.7,503.8,250.8,503.5Z" transform="translate(-228.6 -494.4)" fill="none" stroke="#040000" stroke-miterlimit="10"/><polyline points="64.7 38.8 74.3 38.8 88 38.8 99 38.8 109 38.8 113.2 38.8" fill="none" stroke="#040000" stroke-miterlimit="10"/><polyline points="64.7 52.9 72.9 52.9 82.3 52.9 89.8 52.9 96.3 52.9 103.8 52.9 109.4 52.9 113.2 52.9" fill="none" stroke="#040000" stroke-miterlimit="10"/><polyline points="143.6 45.8 154 45.6 166.2 45.6 177.3 45.6 184.9 45.6 188 45.6" fill="none" stroke="#040000" stroke-miterlimit="10"/><path d="M450.8,535.3s-1.5-5.4-4.6-6.4c0,0-3.4-3.1-8.1,0,0,0-6.3,5.2-7.3,9.8,0,0-2.9,7.8-2.2,12.3,0,0,1.3,6.4,6,6.6,0,0,6.2-.1,8.7-3.9,0,0,4.3-4.9,4.4-7.7l1.8-7.9,2.3-7.3,1.2-2.5-2.4,10.4-1.5,5.3-1.9,6.6s-1.1,4.6.6,5.9a6.8,6.8,0,0,0,5.2,1.1s3.6-2.9,3.9-5.1l1.2-5.3" transform="translate(-228.6 -494.4)" fill="none" stroke="#040000" stroke-miterlimit="10"/><path d="M496.1,525.8v9.6s-.7-5.6-2-6.5-3.8-2.1-6.5-2.1c0,0-7.4.2-9,3.8,0,0-1.5,4.2,0,6,0,0,2.8,4.1,6.4,4.6,0,0,6.8.3,8.8,2.1,0,0,3.9,2.7,3,6.6,0,0,0,4.6-2.3,5.8,0,0-5,2.9-7.6,2.1,0,0-6.9-1-8.1-4.9l-1.6-6.3v12.6" transform="translate(-228.6 -494.4)" fill="none" stroke="#040000" stroke-miterlimit="10"/><path d="M511.4,518.4A4.4,4.4,0,0,1,507,514a4.1,4.1,0,0,1,3-4.1,4.9,4.9,0,0,1,5.2,2s1.4,3.2-.5,5.2C514.7,517.1,513,518.8,511.4,518.4Z" transform="translate(-228.6 -494.4)" fill="none" stroke="#040000" stroke-miterlimit="10"/><polyline points="275.6 34.3 282.3 34.3 284.5 33.8 283.6 41.5 283.6 47.2 283.6 52.5 283.6 60.3 276.4 62 282.7 62 287.1 62 291.9 62" fill="none" stroke="#040000" stroke-miterlimit="10"/><path d="M524,528.7l6.6-.6,1.8.3v27l-6.1,1-2.3.5h17.1l-7.2-3.2-.6-12.1.2-5.2s2.9-4.3,5-5.9a9.8,9.8,0,0,1,7.6-2.4s6.4-.1,6.7,4.7v21.5l-6.9,2.6,6.9-.5h8.8" transform="translate(-228.6 -494.4)" fill="none" stroke="#040000" stroke-miterlimit="10"/><path d="M600.4,527.6s-6.4.7-8.9,2.7c0,0-7.5,3.6-8.9,7.2,0,0-3.7,8.3-1,11.1,0,0,1.2,5.3,4.1,6.7,0,0,3.4,2.3,5.8,2.7a33.6,33.6,0,0,0,8.5-1.1s8.6-3.6,10.3-7.4c0,0,3.7-4.3,3.7-9.5,0,0-.4-5.7-2.8-9,0,0-4.8-3-7-3.4Z" transform="translate(-228.6 -494.4)" fill="none" stroke="#040000" stroke-miterlimit="10"/><polyline points="377.4 13.5 374.7 25 372.9 31.8 370.7 39.6 367.9 51.4 365.5 61.5 363.3 69.4 361 78.9" fill="none" stroke="#040000" stroke-miterlimit="10"/><polyline points="411.9 45.8 421.8 45.8 431.8 45.8 441.4 45.6 450.5 45.8 456.3 45.8" fill="none" stroke="#040000" stroke-miterlimit="10"/><path d="M715.1,520s3.6,1.7,2.6,3.5-4,2.4-4.4,1.1a7.5,7.5,0,0,1,0-6.3s1.7-5.1,6.9-6c0,0,6.2-2.2,10.3,1.5,0,0,5,3.6,4.6,9a13.1,13.1,0,0,1-2.7,10.7s-4,5.5-6,6.7l-7.5,7.7-6.3,7.3h22.7l1.8-4.6,1.1-6" transform="translate(-228.6 -494.4)" fill="none" stroke="#040000" stroke-miterlimit="10"/><path d="M749,509.9h9.8l-4.1,12.3L751.8,536,749,546.5l4.9-13.1s4.1-5,7.8-5.2c0,0,6.5-1.7,8,3.1,0,0,1.3,7.8,0,10.3,0,0-1.6,7-3.8,9.5,0,0-3.7,6.2-8.8,6.6,0,0-6.9-.2-8.1-5.6,0,0-1.3-5.9-1-8.4" transform="translate(-228.6 -494.4)" fill="none" stroke="#040000" stroke-miterlimit="10"/><path d="M809.7,525.8v9.9s-.5-5.2-1.9-6.2-5.1-3.3-8-2.6c0,0-6.6.5-7.5,4.6,0,0-2.4,4.8,0,7,0,0,5.6,3.7,8.8,3.8,0,0,5.2-.2,7.7,2.7,0,0,2.6,3.4,1.6,6.4,0,0-.4,4.7-3.3,5.1,0,0-4.5,2.9-9.5,1.2,0,0-7.1-4.2-7-8.5l.2-2.6-.2,11.6" transform="translate(-228.6 -494.4)" fill="none" stroke="#040000" stroke-miterlimit="10"/><path d="M824.9,518.4a4.3,4.3,0,0,1-4.3-3.8s-.2-4.1,3.5-4.7a4.4,4.4,0,0,1,5,2.8s.9,3.2-1.1,4.6C828,517.3,826.4,518.7,824.9,518.4Z" transform="translate(-228.6 -494.4)" fill="none" stroke="#040000" stroke-miterlimit="10"/><polyline points="589.1 34.3 596.3 34.3 598.1 33.3 597.2 36.9 597.2 43 597.2 50 597.2 55.1 597.2 59.9 592 62.1 588.9 62.1 596.3 62.1 602.8 62.1 605.5 62.1" fill="none" stroke="#040000" stroke-miterlimit="10"/><path d="M837.6,528.7h4.9l3.8-1v27.5l-8.7,1.3h17.5l-7.5-2.5-.4-11.7,1.1-7.2s3.8-5.9,6.8-6.7c0,0,6.7-2.6,9.9,1.8a9.8,9.8,0,0,1,1.4,5.9v18.2l-8.6,2.2h17.4" transform="translate(-228.6 -494.4)" fill="none" stroke="#040000" stroke-miterlimit="10"/><path d="M896.2,519.9s2.8.9,2.8,3.1c0,0-1,5-4.7,2.8,0,0-2.6-4.9,0-7.9,0,0,2-5,6.5-5.5,0,0,6.6-3,12.3,1.7,0,0,4.6,3.4,4.2,9,0,0,.8,6.5-3.4,11l-7.4,8.2-9.3,9.6-3.3,4.5,4.2-1.1,7.8-.2,8.3-.2H918l1.8-10.2" transform="translate(-228.6 -494.4)" fill="none" stroke="#040000" stroke-miterlimit="10"/><path d="M949.3,527.7s-6.9.6-10.2,4.1c0,0-7.4,5.8-7.7,12.1,0,0-2.1,7,3.1,11,0,0,5.3,4.5,11.9,2.6,0,0,9.1-2.2,11.8-6,0,0,5.5-5.5,5.5-11.3a11.7,11.7,0,0,0-4.3-11.2S953.6,526.8,949.3,527.7Z" transform="translate(-228.6 -494.4)" fill="none" stroke="#040000" stroke-miterlimit="10"/><polyline points="727.4 13.5 724.7 25.7 721.2 39.6 718 50.8 714.4 66.3 711.4 78.9" fill="none" stroke="#040000" stroke-miterlimit="10"/><polyline points="761.8 45.8 771 45.8 781.3 45.8 790.5 45.8 799.3 45.8 806.2 45.8" fill="none" stroke="#040000" stroke-miterlimit="10"/><path d="M1083.9,532s-3.4,2.3-2,4c0,0,2.1,1.5,3.9-1.1,0,0,2-3.5-.7-5.9a12.7,12.7,0,0,0-10.4-.7s-7.6,2.9-10.3,10.4c0,0-2.8,7.2-.9,12.3,0,0,1.1,6.9,6.8,7.4a34.9,34.9,0,0,0,11.1-2.7s4.8-3.1,6.2-5.5" transform="translate(-228.6 -494.4)" fill="none" stroke="#040000" stroke-miterlimit="10"/><path d="M1124.2,525.8v10.4a14.9,14.9,0,0,0-2.3-7,9.5,9.5,0,0,0-7.4-2.3s-6-.2-7.9,3.5c0,0-2.8,4.3-1,6.5,0,0,2.4,4.8,7.2,4.7,0,0,5.6-.2,7.7,1.3,0,0,4.2,3.5,3.7,6.2,0,0,1,5.6-2.1,6.9a12.7,12.7,0,0,1-7.4,2.4s-7.7-2.3-8.8-5.6l-1.2-6.2v12.6" transform="translate(-228.6 -494.4)" fill="none" stroke="#040000" stroke-miterlimit="10"/><path d="M1138.8,518.4a4.6,4.6,0,0,1-4.3-4.9s.9-4.8,6.1-3.4a5.3,5.3,0,0,1,2.5,5.2A3.8,3.8,0,0,1,1138.8,518.4Z" transform="translate(-228.6 -494.4)" fill="none" stroke="#040000" stroke-miterlimit="10"/><polyline points="903 34.3 909.6 34.3 912 33.1 911.1 37.8 911.1 44.2 911.1 50.9 911.1 56.8 911.1 59.9 902.7 62.7 909.5 62.2 914.6 62.1 919.4 62.1" fill="none" stroke="#040000" stroke-miterlimit="10"/><path d="M1151.5,528.7h5.6l3.4-.6-.7,5.7-.4,6.2v13.3l-7.9,3.8,5.9-.5h11.5l-7.7-2.7-1-10.2,1.3-7.3s3.2-6.4,6.2-7.3a9.6,9.6,0,0,1,9.9.2s2.6,1.8,2.2,7.3v17.7l-8.3,2.4h17.5" transform="translate(-228.6 -494.4)" fill="none" stroke="#040000" stroke-miterlimit="10"/><path d="M1213.3,503.8s-8,8.9-9.8,14.6c0,0-3.2,9.2-3.3,14.4,0,0-1.5,9.9,0,13.4,0,0,1,10.6,3,14.5a30,30,0,0,0,5.4,10l4.7,5.9" transform="translate(-228.6 -494.4)" fill="none" stroke="#040000" stroke-miterlimit="10"/><path d="M1244.1,527.5s-7.7.3-11.4,4.1c0,0-6,4.7-7.3,9,0,0-2.5,7,.8,11.8,0,0,3.7,5.1,8.1,5.3a20.4,20.4,0,0,0,12.7-2.4s8.3-4.8,9.2-9c0,0,3.1-6.9,0-12.6,0,0-4.1-5.2-7.5-6.2Z" transform="translate(-228.6 -494.4)" fill="none" stroke="#040000" stroke-miterlimit="10"/><polyline points="1021.1 13.5 1018.4 23.9 1015.4 35.7 1012.5 47.3 1009.7 59.2 1007.4 68.3 1005.1 78.9" fill="none" stroke="#040000" stroke-miterlimit="10"/><polyline points="1055.5 45.8 1069 45.6 1078.6 45.6 1085.8 45.6 1099.9 45.8" fill="none" stroke="#040000" stroke-miterlimit="10"/><path d="M1353.8,538.1s1.9-8.9,5.7-9.7c0,0,7.5-3.4,6.6,3.6l-4,14.4s-1.4,5.8.6,7.9c0,0,6.4,4.4,13.1,3.6,0,0,9.7-1.8,13.3-8.3,0,0,6-8.5,5.6-15.9,0,0-.3-6-2.4-6.1,0,0-3.2,1.4-.4,4.6" transform="translate(-228.6 -494.4)" fill="none" stroke="#040000" stroke-miterlimit="10"/><polyline points="1156.5 13.5 1152.4 30.9 1149 44.4 1146 55.7 1142.4 71.6 1140.5 78.9" fill="none" stroke="#040000" stroke-miterlimit="10"/><path d="M1402.8,503.8a55.1,55.1,0,0,1,6.7,7.9s3.5,5,4,8.6c0,0,2.4,7.1,2.4,11.5,0,0,1.5,7.2.8,12.4,0,0,0,11.5-2.7,13.8,0,0-3.2,9.9-6.5,13.5l-4,5.1" transform="translate(-228.6 -494.4)" fill="none" stroke="#040000" stroke-miterlimit="10"/><polyline points="1218.1 45.8 1228.8 46.2 1238.7 45.8 1247.8 46 1256.3 45.8 1266.6 45.8" fill="none" stroke="#040000" stroke-miterlimit="10"/><polyline points="1242.4 21.6 1242.4 26.7 1242.4 33.2 1242.4 40.6 1242.4 50.4 1242.4 59 1242.2 70" fill="none" stroke="#040000" stroke-miterlimit="10"/><polyline points="1295.8 56.9 1304 50.7 1307.4 59.1 1313.4 73.1 1319.1 86.4 1326.9 74.1 1343.2 39.6 1351.6 21.6 1359.1 5.7 1369.5 5.7 1393.2 5.7 1407.1 5.7 1416.2 5.7" fill="none" stroke="#040000" stroke-miterlimit="10"/><path d="M1615.6,558.3s-8.3.4-13.2-6.4c0,0-6.5-7.3-5.6-19.8,0,0,.4-10,3.8-14.4,0,0,5.9-7.6,11.5-8.4,0,0,8.7-1.9,14.1,2.3,0,0,8.4,6.4,8.7,12.9,0,0,2.8,11,0,17.1,0,0-1.7,8.4-7,12.1,0,0-5.8,4.7-10.2,4.6,0,0-5.6-.1-6.4-4.6,0,0,1.3-5.1,5.2-5.3,0,0,4.7.7,6.1,4.3,0,0,3.4,11.7,4.7,12.1s2.9,6.1,7.9,3.5a14.2,14.2,0,0,0,5.1-10.7" transform="translate(-228.6 -494.4)" fill="none" stroke="#040000" stroke-miterlimit="10"/><path d="M1666.4,507.1s-1.1,6.9.5,8.7a9.5,9.5,0,0,0,5.7,1.6s3.5-.4,3.7-2-4.2-1.3-4.2-1.3-6.1.4-8.1,2.2c0,0-7.1,4.2-7.4,8.2,0,0-2.2,5.7.9,9,0,0,1.3,3.4,6.6,3.4,0,0,4.3.6,6.1,0,0,0,2.4-1.9-.2-2.5a28.9,28.9,0,0,0-8.3.2s-7.3,3-9.7,6.8c0,0-4.2,5.3-2.9,8.9,0,0-.3,5.8,4.3,7.2l10.4,3.9,5.1,2.5c.3.1,2.8,3.1.7,5,0,0-1.4,3.8-4.3,3.5,0,0-6.7-.9-8.9-3.2" transform="translate(-228.6 -494.4)" fill="none" stroke="#040000" stroke-miterlimit="10"/><path d="M1677.6,548.4a8,8,0,0,0,5.6-2.7s1.8-5.3,1.7-8.1l-.7,9.4-.2,5.4V564s-.1,4.1,1.7,4.3c0,0,3.2,1.6,5.5-.6,0,0,2-1.8,1.7-7.7" transform="translate(-228.6 -494.4)" fill="none" stroke="#040000" stroke-miterlimit="10"/><polyline points="1449 54.4 1452.6 54.4 1455.9 54.4 1460.3 54.4 1464.4 54.4" fill="none" stroke="#040000" stroke-miterlimit="10"/></svg>